<mxfile host="app.diagrams.net" modified="2024-06-17T09:47:43.349Z" agent="Mozilla/5.0 (Windows NT 10.0; Win64; x64) AppleWebKit/537.36 (KHTML, like Gecko) Chrome/125.0.0.0 Safari/537.36" etag="yoZU4yRJ-I4d9klUAkiH" version="24.5.4" type="device">
  <diagram name="PÃ¡gina-1" id="saEfNSezwRrou3mFzraH">
    <mxGraphModel dx="719" dy="1543" grid="1" gridSize="10" guides="1" tooltips="1" connect="1" arrows="1" fold="1" page="1" pageScale="1" pageWidth="827" pageHeight="1169" math="0" shadow="0">
      <root>
        <mxCell id="0" />
        <mxCell id="1" parent="0" />
        <mxCell id="o1M-8s1b01mmIacxAW4L-50" style="edgeStyle=orthogonalEdgeStyle;rounded=0;orthogonalLoop=1;jettySize=auto;html=1;entryX=0;entryY=0.5;entryDx=0;entryDy=0;endArrow=none;endFill=0;" edge="1" parent="1" source="o1M-8s1b01mmIacxAW4L-1" target="o1M-8s1b01mmIacxAW4L-39">
          <mxGeometry relative="1" as="geometry" />
        </mxCell>
        <mxCell id="o1M-8s1b01mmIacxAW4L-54" value="has" style="edgeLabel;html=1;align=center;verticalAlign=middle;resizable=0;points=[];" vertex="1" connectable="0" parent="o1M-8s1b01mmIacxAW4L-50">
          <mxGeometry x="0.4402" relative="1" as="geometry">
            <mxPoint x="-22" as="offset" />
          </mxGeometry>
        </mxCell>
        <mxCell id="o1M-8s1b01mmIacxAW4L-76" style="edgeStyle=orthogonalEdgeStyle;rounded=0;orthogonalLoop=1;jettySize=auto;html=1;entryX=0.5;entryY=0;entryDx=0;entryDy=0;endArrow=none;endFill=0;" edge="1" parent="1" source="o1M-8s1b01mmIacxAW4L-1" target="o1M-8s1b01mmIacxAW4L-19">
          <mxGeometry relative="1" as="geometry" />
        </mxCell>
        <mxCell id="o1M-8s1b01mmIacxAW4L-77" value="has" style="edgeLabel;html=1;align=center;verticalAlign=middle;resizable=0;points=[];" vertex="1" connectable="0" parent="o1M-8s1b01mmIacxAW4L-76">
          <mxGeometry x="-0.1922" y="3" relative="1" as="geometry">
            <mxPoint as="offset" />
          </mxGeometry>
        </mxCell>
        <mxCell id="o1M-8s1b01mmIacxAW4L-1" value="Cross&lt;span style=&quot;background-color: initial;&quot;&gt;word&lt;/span&gt;" style="swimlane;fontStyle=0;childLayout=stackLayout;horizontal=1;startSize=26;fillColor=none;horizontalStack=0;resizeParent=1;resizeParentMax=0;resizeLast=0;collapsible=1;marginBottom=0;whiteSpace=wrap;html=1;" vertex="1" parent="1">
          <mxGeometry x="59" y="-373" width="160" height="130" as="geometry" />
        </mxCell>
        <mxCell id="o1M-8s1b01mmIacxAW4L-2" value="+ date: Date" style="text;strokeColor=none;fillColor=none;align=left;verticalAlign=top;spacingLeft=4;spacingRight=4;overflow=hidden;rotatable=0;points=[[0,0.5],[1,0.5]];portConstraint=eastwest;whiteSpace=wrap;html=1;" vertex="1" parent="o1M-8s1b01mmIacxAW4L-1">
          <mxGeometry y="26" width="160" height="26" as="geometry" />
        </mxCell>
        <mxCell id="o1M-8s1b01mmIacxAW4L-7" value="/ numWords: Integer" style="text;strokeColor=none;fillColor=none;align=left;verticalAlign=top;spacingLeft=4;spacingRight=4;overflow=hidden;rotatable=0;points=[[0,0.5],[1,0.5]];portConstraint=eastwest;whiteSpace=wrap;html=1;" vertex="1" parent="o1M-8s1b01mmIacxAW4L-1">
          <mxGeometry y="52" width="160" height="26" as="geometry" />
        </mxCell>
        <mxCell id="o1M-8s1b01mmIacxAW4L-6" value="/ numWordsAcross: Integer" style="text;strokeColor=none;fillColor=none;align=left;verticalAlign=top;spacingLeft=4;spacingRight=4;overflow=hidden;rotatable=0;points=[[0,0.5],[1,0.5]];portConstraint=eastwest;whiteSpace=wrap;html=1;" vertex="1" parent="o1M-8s1b01mmIacxAW4L-1">
          <mxGeometry y="78" width="160" height="26" as="geometry" />
        </mxCell>
        <mxCell id="o1M-8s1b01mmIacxAW4L-9" value="/ numWordsDown: Integer" style="text;strokeColor=none;fillColor=none;align=left;verticalAlign=top;spacingLeft=4;spacingRight=4;overflow=hidden;rotatable=0;points=[[0,0.5],[1,0.5]];portConstraint=eastwest;whiteSpace=wrap;html=1;" vertex="1" parent="o1M-8s1b01mmIacxAW4L-1">
          <mxGeometry y="104" width="160" height="26" as="geometry" />
        </mxCell>
        <mxCell id="o1M-8s1b01mmIacxAW4L-11" value="Cell" style="swimlane;fontStyle=0;childLayout=stackLayout;horizontal=1;startSize=26;fillColor=none;horizontalStack=0;resizeParent=1;resizeParentMax=0;resizeLast=0;collapsible=1;marginBottom=0;whiteSpace=wrap;html=1;" vertex="1" parent="1">
          <mxGeometry x="609" y="-399" width="160" height="182" as="geometry" />
        </mxCell>
        <mxCell id="o1M-8s1b01mmIacxAW4L-12" value="+ dark: Boolean" style="text;strokeColor=none;fillColor=none;align=left;verticalAlign=top;spacingLeft=4;spacingRight=4;overflow=hidden;rotatable=0;points=[[0,0.5],[1,0.5]];portConstraint=eastwest;whiteSpace=wrap;html=1;" vertex="1" parent="o1M-8s1b01mmIacxAW4L-11">
          <mxGeometry y="26" width="160" height="26" as="geometry" />
        </mxCell>
        <mxCell id="o1M-8s1b01mmIacxAW4L-13" value="+ solution: String" style="text;strokeColor=none;fillColor=none;align=left;verticalAlign=top;spacingLeft=4;spacingRight=4;overflow=hidden;rotatable=0;points=[[0,0.5],[1,0.5]];portConstraint=eastwest;whiteSpace=wrap;html=1;" vertex="1" parent="o1M-8s1b01mmIacxAW4L-11">
          <mxGeometry y="52" width="160" height="26" as="geometry" />
        </mxCell>
        <mxCell id="o1M-8s1b01mmIacxAW4L-45" value="/ label: String {Optional}" style="text;strokeColor=none;fillColor=none;align=left;verticalAlign=top;spacingLeft=4;spacingRight=4;overflow=hidden;rotatable=0;points=[[0,0.5],[1,0.5]];portConstraint=eastwest;whiteSpace=wrap;html=1;" vertex="1" parent="o1M-8s1b01mmIacxAW4L-11">
          <mxGeometry y="78" width="160" height="26" as="geometry" />
        </mxCell>
        <mxCell id="o1M-8s1b01mmIacxAW4L-24" value="/ across: String {Optional}" style="text;strokeColor=none;fillColor=none;align=left;verticalAlign=top;spacingLeft=4;spacingRight=4;overflow=hidden;rotatable=0;points=[[0,0.5],[1,0.5]];portConstraint=eastwest;whiteSpace=wrap;html=1;" vertex="1" parent="o1M-8s1b01mmIacxAW4L-11">
          <mxGeometry y="104" width="160" height="26" as="geometry" />
        </mxCell>
        <mxCell id="o1M-8s1b01mmIacxAW4L-53" value="/ down: String {Optional}" style="text;strokeColor=none;fillColor=none;align=left;verticalAlign=top;spacingLeft=4;spacingRight=4;overflow=hidden;rotatable=0;points=[[0,0.5],[1,0.5]];portConstraint=eastwest;whiteSpace=wrap;html=1;" vertex="1" parent="o1M-8s1b01mmIacxAW4L-11">
          <mxGeometry y="130" width="160" height="26" as="geometry" />
        </mxCell>
        <mxCell id="o1M-8s1b01mmIacxAW4L-23" value="/ down: String {Optional}" style="text;strokeColor=none;fillColor=none;align=left;verticalAlign=top;spacingLeft=4;spacingRight=4;overflow=hidden;rotatable=0;points=[[0,0.5],[1,0.5]];portConstraint=eastwest;whiteSpace=wrap;html=1;" vertex="1" parent="o1M-8s1b01mmIacxAW4L-11">
          <mxGeometry y="156" width="160" height="26" as="geometry" />
        </mxCell>
        <mxCell id="o1M-8s1b01mmIacxAW4L-19" value="Clue" style="swimlane;fontStyle=0;childLayout=stackLayout;horizontal=1;startSize=26;fillColor=none;horizontalStack=0;resizeParent=1;resizeParentMax=0;resizeLast=0;collapsible=1;marginBottom=0;whiteSpace=wrap;html=1;" vertex="1" parent="1">
          <mxGeometry x="64" y="-110" width="150" height="78" as="geometry" />
        </mxCell>
        <mxCell id="o1M-8s1b01mmIacxAW4L-20" value="+ label: String" style="text;strokeColor=none;fillColor=none;align=left;verticalAlign=top;spacingLeft=4;spacingRight=4;overflow=hidden;rotatable=0;points=[[0,0.5],[1,0.5]];portConstraint=eastwest;whiteSpace=wrap;html=1;" vertex="1" parent="o1M-8s1b01mmIacxAW4L-19">
          <mxGeometry y="26" width="150" height="26" as="geometry" />
        </mxCell>
        <mxCell id="o1M-8s1b01mmIacxAW4L-21" value="+ hint: String" style="text;strokeColor=none;fillColor=none;align=left;verticalAlign=top;spacingLeft=4;spacingRight=4;overflow=hidden;rotatable=0;points=[[0,0.5],[1,0.5]];portConstraint=eastwest;whiteSpace=wrap;html=1;" vertex="1" parent="o1M-8s1b01mmIacxAW4L-19">
          <mxGeometry y="52" width="150" height="26" as="geometry" />
        </mxCell>
        <mxCell id="o1M-8s1b01mmIacxAW4L-49" style="edgeStyle=orthogonalEdgeStyle;rounded=0;orthogonalLoop=1;jettySize=auto;html=1;entryX=0;entryY=0.5;entryDx=0;entryDy=0;endArrow=none;endFill=0;" edge="1" parent="1" source="o1M-8s1b01mmIacxAW4L-38" target="o1M-8s1b01mmIacxAW4L-45">
          <mxGeometry relative="1" as="geometry" />
        </mxCell>
        <mxCell id="o1M-8s1b01mmIacxAW4L-58" value="has" style="edgeLabel;html=1;align=center;verticalAlign=middle;resizable=0;points=[];" vertex="1" connectable="0" parent="o1M-8s1b01mmIacxAW4L-49">
          <mxGeometry x="0.0669" y="2" relative="1" as="geometry">
            <mxPoint x="-28" y="2" as="offset" />
          </mxGeometry>
        </mxCell>
        <mxCell id="o1M-8s1b01mmIacxAW4L-38" value="Grid" style="swimlane;fontStyle=0;childLayout=stackLayout;horizontal=1;startSize=26;fillColor=none;horizontalStack=0;resizeParent=1;resizeParentMax=0;resizeLast=0;collapsible=1;marginBottom=0;whiteSpace=wrap;html=1;" vertex="1" parent="1">
          <mxGeometry x="339" y="-347" width="140" height="78" as="geometry" />
        </mxCell>
        <mxCell id="o1M-8s1b01mmIacxAW4L-39" value="+ numRows: Integer" style="text;strokeColor=none;fillColor=none;align=left;verticalAlign=top;spacingLeft=4;spacingRight=4;overflow=hidden;rotatable=0;points=[[0,0.5],[1,0.5]];portConstraint=eastwest;whiteSpace=wrap;html=1;" vertex="1" parent="o1M-8s1b01mmIacxAW4L-38">
          <mxGeometry y="26" width="140" height="26" as="geometry" />
        </mxCell>
        <mxCell id="o1M-8s1b01mmIacxAW4L-40" value="+ numCols: Integer" style="text;strokeColor=none;fillColor=none;align=left;verticalAlign=top;spacingLeft=4;spacingRight=4;overflow=hidden;rotatable=0;points=[[0,0.5],[1,0.5]];portConstraint=eastwest;whiteSpace=wrap;html=1;" vertex="1" parent="o1M-8s1b01mmIacxAW4L-38">
          <mxGeometry y="52" width="140" height="26" as="geometry" />
        </mxCell>
        <mxCell id="o1M-8s1b01mmIacxAW4L-69" style="edgeStyle=orthogonalEdgeStyle;rounded=0;orthogonalLoop=1;jettySize=auto;html=1;dashed=1;endArrow=none;endFill=0;" edge="1" parent="1" source="o1M-8s1b01mmIacxAW4L-46">
          <mxGeometry relative="1" as="geometry">
            <mxPoint x="540" y="-310" as="targetPoint" />
          </mxGeometry>
        </mxCell>
        <mxCell id="o1M-8s1b01mmIacxAW4L-46" value="&lt;ul style=&quot;font-size: 13px;&quot;&gt;&lt;li&gt;Una cuadrÃ­cula (Grid) tiene nRows x numCols celdas&lt;/li&gt;&lt;li&gt;Si la celda es un bloque, es decir dark=true, entoneces solution es el carÃ¡cter &quot;.&quot;&lt;/li&gt;&lt;li&gt;No puede haber ninguna celda que no pertenezca a ninguna palabra en horizontal o en vertical, es decir, across y down no pueden ser nulos simultÃ¡neamente&lt;/li&gt;&lt;li&gt;Una celda tiene label si comienza una palabra vertical u horizontal&lt;/li&gt;&lt;/ul&gt;" style="rounded=0;whiteSpace=wrap;html=1;align=left;fillColor=#f8cecc;strokeColor=#b85450;dashed=1;dashPattern=8 8;" vertex="1" parent="1">
          <mxGeometry x="330" y="-570" width="420" height="155" as="geometry" />
        </mxCell>
        <mxCell id="o1M-8s1b01mmIacxAW4L-66" style="edgeStyle=orthogonalEdgeStyle;rounded=0;orthogonalLoop=1;jettySize=auto;html=1;dashed=1;endArrow=none;endFill=0;" edge="1" parent="1" source="o1M-8s1b01mmIacxAW4L-47">
          <mxGeometry relative="1" as="geometry">
            <mxPoint x="139" y="-160" as="targetPoint" />
          </mxGeometry>
        </mxCell>
        <mxCell id="o1M-8s1b01mmIacxAW4L-47" value="&lt;ul&gt;&lt;li&gt;&lt;font style=&quot;font-size: 13px;&quot;&gt;Un crucigrama numWords pistas o lo que es lo mismo numWordsAcross + numWordsDown&lt;/font&gt;&lt;/li&gt;&lt;/ul&gt;" style="rounded=0;whiteSpace=wrap;html=1;fillColor=#f8cecc;strokeColor=#b85450;dashed=1;dashPattern=8 8;" vertex="1" parent="1">
          <mxGeometry x="255" y="-210" width="335" height="100" as="geometry" />
        </mxCell>
        <mxCell id="o1M-8s1b01mmIacxAW4L-60" value="&lt;font style=&quot;font-size: 14px;&quot;&gt;1&lt;/font&gt;" style="text;html=1;align=center;verticalAlign=middle;whiteSpace=wrap;rounded=0;" vertex="1" parent="1">
          <mxGeometry x="319" y="-330" width="20" height="17" as="geometry" />
        </mxCell>
        <mxCell id="o1M-8s1b01mmIacxAW4L-61" value="&lt;font style=&quot;font-size: 14px;&quot;&gt;1&lt;/font&gt;" style="text;html=1;align=center;verticalAlign=middle;whiteSpace=wrap;rounded=0;" vertex="1" parent="1">
          <mxGeometry x="219" y="-330" width="20" height="17" as="geometry" />
        </mxCell>
        <mxCell id="o1M-8s1b01mmIacxAW4L-62" value="&lt;font style=&quot;font-size: 14px;&quot;&gt;1&lt;/font&gt;" style="text;html=1;align=center;verticalAlign=middle;whiteSpace=wrap;rounded=0;" vertex="1" parent="1">
          <mxGeometry x="479" y="-330" width="20" height="17" as="geometry" />
        </mxCell>
        <mxCell id="o1M-8s1b01mmIacxAW4L-63" value="&lt;font style=&quot;font-size: 14px;&quot;&gt;n&lt;/font&gt;" style="text;html=1;align=center;verticalAlign=middle;whiteSpace=wrap;rounded=0;" vertex="1" parent="1">
          <mxGeometry x="589" y="-330" width="20" height="17" as="geometry" />
        </mxCell>
        <mxCell id="o1M-8s1b01mmIacxAW4L-64" value="&lt;font style=&quot;font-size: 14px;&quot;&gt;1&lt;/font&gt;" style="text;html=1;align=center;verticalAlign=middle;whiteSpace=wrap;rounded=0;" vertex="1" parent="1">
          <mxGeometry x="139" y="-243" width="20" height="17" as="geometry" />
        </mxCell>
        <mxCell id="o1M-8s1b01mmIacxAW4L-65" value="&lt;font style=&quot;font-size: 14px;&quot;&gt;n&lt;/font&gt;" style="text;html=1;align=center;verticalAlign=middle;whiteSpace=wrap;rounded=0;" vertex="1" parent="1">
          <mxGeometry x="139" y="-130" width="20" height="17" as="geometry" />
        </mxCell>
      </root>
    </mxGraphModel>
  </diagram>
</mxfile>
